<svg xmlns="http://www.w3.org/2000/svg" width="27" height="27" viewBox="0 0 27 27" fill="none">
    <g clip-path="url(#clip0_357_687)">
        <mask id="mask0_357_687" style="mask-type:luminance" maskUnits="userSpaceOnUse" x="0" y="0" width="27" height="27">
            <path d="M24.4907 0.58856L0.582031 2.6803L2.67377 26.589L26.5824 24.4972L24.4907 0.58856Z" fill="white"/>
        </mask>
        <g mask="url(#mask0_357_687)">
            <path fill-rule="evenodd" clip-rule="evenodd" d="M1.58603 14.156C1.11279 8.7469 0.876118 6.04172 2.4095 4.21461C3.94277 2.38627 6.64825 2.14957 12.0579 1.67629L13.0135 1.59268C18.4233 1.11939 21.1287 0.882695 22.9562 2.41701C24.7837 3.95133 25.0202 6.65527 25.4936 12.0656L25.5772 13.0216C26.0504 18.4307 26.2871 21.1359 24.7538 22.9643C23.2206 24.7926 20.5151 25.0293 15.1054 25.5026L14.1498 25.5862C8.73885 26.0596 6.03462 26.2962 4.20715 24.7619C2.37968 23.2275 2.14301 20.5224 1.66977 15.1133L1.58613 14.1573L1.58603 14.156Z" fill="#0077FF"/>
            <path fill-rule="evenodd" clip-rule="evenodd" d="M13.0147 1.59253L12.0579 1.67624C6.64818 2.14953 3.94271 2.38623 2.40944 4.21457C1.06858 5.81229 1.08084 8.08216 1.42263 12.2461L14.1894 20.5225L25.3251 10.1549C24.9386 5.99488 24.5565 3.75736 22.9574 2.41686C21.1299 0.882546 18.4244 1.11924 13.0147 1.59253Z" fill="#FF22A6"/>
            <path fill-rule="evenodd" clip-rule="evenodd" d="M10.9427 19.8458C9.56779 18.953 8.35685 18.1478 7.51532 17.2768C6.51282 16.2384 6.00426 15.0995 5.88112 13.692C5.6275 10.7932 7.80158 8.3134 10.6187 8.06693C11.5247 7.98767 12.3657 8.13783 13.1282 8.46266C13.8439 7.99607 14.6658 7.71286 15.5171 7.63837L15.5407 7.63631C18.3579 7.38984 20.9296 9.45444 21.1832 12.3533C21.3062 13.7595 21.0032 14.9706 20.1963 16.1674C19.5188 17.1713 18.4662 18.1758 17.2671 19.2925L15.9955 20.4677C15.5166 20.9111 14.9026 21.1823 14.251 21.2393C13.5995 21.2963 12.9475 21.1346 12.399 20.7824L10.9427 19.8458ZM14.5171 10.4443C14.1003 10.697 13.7297 11.0638 13.4043 11.5472C12.9815 11.1169 12.5362 10.8152 12.0682 10.6411C11.6778 10.4951 11.2577 10.4386 10.8419 10.475L10.8295 10.4761C9.29807 10.61 8.14871 11.9523 8.28243 13.4807C8.43255 15.1966 9.38022 15.9514 12.2424 17.8067L13.6987 18.7433C13.7995 18.809 13.9209 18.8382 14.0413 18.8276C14.1616 18.8171 14.2761 18.7673 14.3639 18.6851L15.6355 17.5098C18.1307 15.1846 18.9341 14.2766 18.7841 12.5619C18.6504 11.0336 17.2842 9.91134 15.7527 10.0453C15.7465 10.0459 15.7403 10.0464 15.7341 10.047C15.3035 10.0846 14.8864 10.2206 14.517 10.4431L14.5171 10.4443Z" fill="white"/>
        </g>
    </g>
    <defs>
        <clipPath id="clip0_357_687">
            <rect width="24" height="24" fill="white" transform="translate(0.582031 2.6803) rotate(-5)"/>
        </clipPath>
    </defs>
</svg>
