<svg xmlns="http://www.w3.org/2000/svg" width="26" height="36" viewBox="0 0 26 36" fill="none">
  <path fill-rule="evenodd" clip-rule="evenodd"
        d="M11.228 3.41663C10.6097 3.41663 10.0233 3.69126 9.6275 4.16624L3.06625 12.0397C2.75424 12.4141 2.58337 12.8861 2.58337 13.3735V27.1666C2.58337 30.1582 5.0085 32.5833 8.00004 32.5833H18C20.9916 32.5833 23.4167 30.1582 23.4167 27.1666V8.83329C23.4167 5.84175 20.9916 3.41663 18 3.41663H11.228ZM7.70694 2.56578C8.57775 1.52081 9.86772 0.916626 11.228 0.916626H18C22.3723 0.916626 25.9167 4.46104 25.9167 8.83329V27.1666C25.9167 31.5389 22.3723 35.0833 18 35.0833H8.00004C3.62779 35.0833 0.083374 31.5389 0.083374 27.1666V13.3735C0.083374 12.3012 0.459281 11.263 1.14569 10.4393L7.70694 2.56578Z"
        fill="currentColor"/>
  <path fill-rule="evenodd" clip-rule="evenodd"
        d="M7.55343 15.0209C8.72852 13.5847 10.5421 12.5833 13 12.5833C16.968 12.5833 19.1114 15.1575 19.8103 17.688C20.0578 18.5844 19.7834 19.4327 19.245 20.0207C18.7235 20.59 17.9633 20.9166 17.1667 20.9166H8.58252C8.75052 21.5557 9.04868 22.1919 9.48832 22.7292C10.1882 23.5847 11.2913 24.25 13 24.25C15.2494 24.25 16.5576 23.5079 17.1162 22.9494C17.6043 22.4613 18.3958 22.4613 18.8839 22.9494C19.3721 23.4376 19.3721 24.229 18.8839 24.7172C17.7758 25.8253 15.7888 26.75 13 26.75C10.5421 26.75 8.72852 25.7486 7.55343 24.3123C6.41024 22.9151 5.91671 21.1667 5.91671 19.6666C5.91671 18.1665 6.41024 16.4181 7.55343 15.0209ZM8.58252 18.4166H17.1667C17.2838 18.4166 17.3632 18.3695 17.3961 18.3376C16.9274 16.6609 15.608 15.0833 13 15.0833C11.2913 15.0833 10.1882 15.7486 9.48832 16.604C9.04868 17.1413 8.75052 17.7775 8.58252 18.4166Z"
        fill="currentColor"/>
</svg>
