<svg width="61" height="93" viewBox="0 0 61 93" fill="none" xmlns="http://www.w3.org/2000/svg">
<path d="M40.2406 79.429C40.1001 79.6554 39.9717 79.9134 40.0662 80.1665C40.2188 80.5803 40.2358 80.9771 40.1098 81.3909C40.0977 81.4274 40.1291 81.5151 40.1534 81.5199C40.243 81.537 40.3715 81.5686 40.4272 81.5248C42.4893 79.8331 44.3986 77.9831 45.9397 75.7948C46.9574 74.3465 47.8636 72.8251 48.5687 71.1796C49.4119 69.2104 50.1752 67.2144 50.89 65.1965C51.1517 64.4565 51.3625 63.7068 51.4861 62.9278C51.7236 61.4308 51.9998 59.9436 52.247 58.449C52.3051 58.0887 52.3196 57.7212 52.3439 57.356C52.3778 56.8862 52.3754 56.414 52.436 55.9491C52.8019 53.0865 52.7437 50.2142 52.7049 47.3395C52.6468 43.1187 51.8617 39.0366 50.4151 35.0762C49.6422 32.9585 48.6099 30.9673 47.5656 28.9811C47.1537 28.1973 46.686 27.4403 46.2523 26.6662C45.8186 25.8897 45.3194 25.1594 44.7718 24.4584C44.4204 24.0081 44.0715 23.5383 43.8219 23.0296C43.2889 21.9318 42.5135 21.0287 41.6799 20.167C40.7713 19.2323 39.8505 18.3097 38.9201 17.3993C38.2852 16.7786 37.7667 16.046 37.1342 15.435C36.543 14.863 35.7531 14.5051 35.1304 13.9575C34.0279 12.9887 32.8139 12.1927 31.5636 11.4381C30.9845 11.09 30.4344 10.6932 29.8699 10.3184C29.2617 9.91188 28.622 9.5638 27.9338 9.31552C27.2941 9.08427 26.6835 8.79217 26.165 8.34185C25.9178 8.12765 25.6416 7.9889 25.3218 7.97916C24.7257 7.96456 24.2314 7.6895 23.7274 7.41687C22.7606 6.88866 21.7163 6.59413 20.6283 6.45051C20.4756 6.43104 20.3036 6.43347 20.1776 6.36288C19.2011 5.81033 18.0913 5.74704 17.0349 5.50362C15.6634 5.18718 14.2532 5.14094 12.8526 5.06061C12.2299 5.0241 11.6096 4.95837 10.9893 4.91456C10.575 4.88535 10.1581 4.85127 9.7438 4.8464C8.54923 4.83666 7.35228 4.83423 6.1577 4.84397C5.37747 4.85127 4.59963 4.88535 3.8194 4.90482C3.56013 4.90969 3.29845 4.92673 3.0416 4.89752C2.36314 4.82693 1.69193 4.84883 1.02074 4.97054C0.918968 4.99002 0.814769 5.00219 0.710577 5.00219C0.5555 5.00219 0.407721 4.97784 0.315644 4.82936C0.252644 4.72956 0.383488 4.52996 0.555526 4.47884C1.60229 4.16971 2.64904 3.84596 3.74427 3.75346C4.63112 3.678 5.46951 3.42485 6.30062 3.14006C6.25943 2.97454 6.22551 2.84309 6.1819 2.66539C6.59867 2.62645 7.01062 2.5656 7.42254 2.55586C8.35785 2.53639 9.29554 2.53638 10.2308 2.53638C11.0135 2.53638 11.7865 2.59481 12.5183 2.93072C12.9568 3.13276 13.4293 3.16197 13.8897 3.00618C14.6602 2.74816 15.4211 2.7871 16.1892 3.02078C16.7853 3.20335 17.3935 3.17414 18.2948 3.13519C17.1536 2.81631 16.2982 2.62402 15.409 2.61915C15.1497 2.61915 14.8832 2.60941 14.6336 2.55343C13.5069 2.30271 12.3632 2.30514 11.2171 2.30027C9.39732 2.29297 7.57516 2.26619 5.75543 2.24429C5.44286 2.23942 5.12301 2.21994 4.90251 1.95462C4.85647 1.90107 4.87101 1.70634 4.90251 1.69417C5.13997 1.59924 5.39924 1.44832 5.63185 1.47753C6.41935 1.57733 7.19961 1.29253 7.96045 1.41667C8.6898 1.53595 9.41428 1.29497 10.1267 1.48726C10.747 1.36312 11.3648 1.45805 11.9851 1.49944C12.9762 1.56516 13.943 1.39477 14.9365 1.21951C14.6821 0.912805 14.682 0.912804 12.4092 0.545246C12.5933 0.452748 12.7121 0.369986 12.8405 0.335908C13.2427 0.231239 13.645 0.1144 14.0545 0.0584144C14.8323 -0.0511227 15.6101 0.00486365 16.3855 0.13144C17.0518 0.238543 17.723 0.309131 18.3942 0.391893C18.6002 0.416234 18.8109 0.4138 19.0145 0.452747C19.5766 0.554981 20.1534 0.623139 20.6961 0.795964C22.087 1.23655 23.5432 1.37286 24.9292 1.85726C27.0906 2.61185 29.2617 3.33479 31.3577 4.26221C31.5927 4.36687 31.8544 4.40582 32.1039 4.47641L32.0918 4.46424C32.2469 4.67601 32.4844 4.72956 32.717 4.78798L32.7073 4.77338C32.8236 4.86344 32.9399 4.86101 33.0538 4.77338L33.0441 4.78798C33.4173 4.78068 33.7541 4.89508 34.0764 5.07034C35.804 6.00993 37.4274 7.11503 38.9976 8.29317C39.2859 8.50981 39.5404 8.77756 39.5961 9.16703L39.5549 9.19867L39.5937 9.16216C39.8021 9.16703 40.0104 9.1719 40.2212 9.17677L40.214 9.16703C40.4175 9.73419 40.907 10.0652 41.3019 10.4669C41.9537 11.1314 42.6516 11.7497 43.3131 12.4045C43.5312 12.6211 43.6984 12.8913 43.8971 13.1298C44.2823 13.5923 44.4689 14.2642 45.2007 14.3688C45.2782 14.381 45.3606 14.5027 45.3994 14.5903C45.695 15.2622 46.2498 15.7539 46.6278 16.3721C46.9792 16.9442 47.4105 17.4699 47.8297 17.9982C48.2804 18.5677 48.7771 19.0984 49.2157 19.6777C49.4726 20.0185 49.7512 20.2911 50.1365 20.4786C50.3812 20.5954 50.4709 20.8607 50.5508 21.1114C50.4369 21.1114 50.323 21.1114 50.2091 21.1114L50.2261 21.0968C50.3303 21.1796 50.4345 21.1772 50.5387 21.0968C50.7447 21.1966 50.9506 21.2989 51.1566 21.3987L51.142 21.4133C51.1953 21.3281 51.2317 21.2015 51.3068 21.1674C51.3795 21.1358 51.4958 21.1942 51.5879 21.2283C51.6315 21.2453 51.6703 21.294 51.6994 21.3354C52.8988 23.0466 53.9795 24.8308 54.9535 26.6784C56.1481 28.9421 57.1537 31.2911 57.9994 33.7106C58.2562 34.4482 58.4428 35.2101 58.6584 35.9622C58.702 36.1132 58.7093 36.2738 58.7553 36.4223C59.2424 37.9728 59.4798 39.5745 59.7488 41.1713C59.8433 41.7361 59.899 42.3081 59.9596 42.8777C59.9911 43.1893 59.9814 43.5057 60.0105 43.8173C60.2771 46.524 60.2068 49.243 60.2964 51.9571C60.3085 52.3222 60.2843 52.6898 60.2455 53.0525C60.0953 54.4545 59.9014 55.8493 59.8966 57.2635C59.8966 57.3682 59.8821 57.4729 59.8578 57.5751C59.3829 59.6076 59.1551 61.6888 58.5906 63.7043C58.2683 64.8557 58.0017 66.0265 57.6577 67.1754C57.5244 67.6233 57.4154 68.0858 57.1028 68.4582C56.7563 68.8745 56.5939 69.3589 56.5746 69.9017C56.56 70.3374 56.3323 70.6709 56.0706 71.0165C55.2686 72.0632 54.7161 73.2389 54.4907 74.5509C54.4181 74.9745 54.2823 75.3615 54.0328 75.6999C53.5675 76.3327 53.1822 77.007 52.8115 77.6983C52.5401 78.2046 52.1961 78.6598 51.7914 79.076C50.9191 79.9718 50.0807 80.8992 49.2133 81.7999C48.6366 82.3987 48.0575 83.0023 47.4372 83.5573C45.5714 85.2247 43.6668 86.841 41.6727 88.3526C41.6048 88.4037 41.5539 88.5425 41.5733 88.6228C41.5854 88.6764 41.7454 88.7421 41.8229 88.725C43.2477 88.3916 44.6191 87.9193 45.884 87.1672C46.0609 87.0601 46.2523 86.9724 46.4413 86.8897C46.6545 86.7972 46.8386 86.8556 46.9961 87.026C47.11 87.1501 47.2627 87.1915 47.4177 87.1307C47.8563 86.9603 48.2707 86.7436 48.6075 86.4028C48.8256 86.1813 49.0461 85.9671 49.2666 85.7481L49.2569 85.7359C49.3732 85.7359 49.4895 85.7359 49.6082 85.7359L49.5985 85.7481C49.8021 85.7334 50.0056 85.7115 50.2091 85.7042C50.4587 85.6945 50.5532 85.7919 50.5726 86.0742C50.5799 86.1765 50.5581 86.2787 50.5484 86.3809C50.5096 86.4102 50.4684 86.4369 50.4297 86.4661C50.4636 86.4321 50.4975 86.3955 50.5314 86.3615C50.7398 86.3688 50.9482 86.3736 51.1566 86.3809L51.1372 86.359C51.6993 86.7923 52.3681 86.9091 53.0393 87.0114L53.0151 86.9919C52.9642 87.3497 52.9133 87.71 52.8624 88.0702C52.0701 89.0707 51.0621 89.7523 49.8966 90.261C47.9436 91.1129 45.9494 91.831 43.8728 92.313C43.5724 92.3836 43.2598 92.4031 42.9496 92.4371C42.6419 92.4688 42.3123 92.4298 42.024 92.5199C40.7058 92.9313 39.3611 92.7925 38.0211 92.7706C37.5026 92.7633 36.9889 92.739 36.4849 92.9215C36.0051 93.0968 35.5689 92.9702 35.1958 92.6245C35.1909 92.6392 35.2612 92.5807 35.2103 92.6392C33.96 92.6513 32.7242 92.4761 31.4885 92.3227C30.7228 92.2278 29.9571 92.0501 29.2423 91.7069C28.966 91.573 28.6535 91.5146 28.3603 91.4172C28.1931 91.3637 28.1786 91.2006 28.3191 91.0594C28.4621 90.9158 28.605 90.7697 28.7189 90.6042C28.7431 90.5701 28.6292 90.3705 28.5905 90.373C28.3385 90.3949 28.0914 90.463 27.8394 90.4922C27.6576 90.5141 27.4201 90.2537 27.4516 90.0857C27.4904 89.8837 27.534 89.6817 27.5922 89.4821C27.6649 89.2338 27.8636 88.966 27.8151 88.7469C27.6382 87.9461 28.1446 87.4836 28.5759 86.9724C28.6098 86.9335 28.6487 86.897 28.6874 86.8629C29.7851 85.9087 30.8464 84.9083 32.1015 84.1561C32.2469 84.3679 32.2469 84.3679 32.3995 84.1659L32.4141 84.1805C32.3051 84.178 32.1936 84.178 32.0846 84.1756C31.8689 83.6571 31.9416 83.1557 32.1839 82.6689C32.3051 82.423 32.5086 82.221 32.7848 82.2404C33.3712 82.2794 33.4415 81.8583 33.5505 81.4566C33.5917 81.3009 33.5045 81.1767 33.3203 81.1499C33.2186 81.1353 33.1022 81.1694 33.0174 81.128C32.9375 81.0891 32.843 80.9869 32.8333 80.9041C32.8163 80.7556 32.8284 80.5876 32.8769 80.4465C33.1749 79.6091 33.4221 78.762 33.5118 77.8736C33.5263 77.7226 33.5893 77.5693 33.662 77.433C33.6984 77.3624 33.8001 77.3259 33.8801 77.2869C33.8873 77.2821 33.9552 77.36 33.9649 77.4062C34.0691 77.9855 33.977 78.5454 33.8146 79.1004C33.7565 79.2951 33.7492 79.5069 33.7298 79.7113C33.7274 79.7479 33.7807 79.8063 33.8195 79.8258C33.8486 79.8379 33.914 79.8136 33.9382 79.7844C34.1442 79.5263 34.1684 79.2148 34.183 78.9008C34.2193 78.1219 34.2605 77.3429 34.3041 76.435C34.1708 76.1599 33.8098 75.8654 33.8461 75.3177C33.8921 74.5972 33.7541 73.8645 33.7153 73.1367C33.6887 72.6645 33.7371 72.2142 34.023 71.7955C34.1927 71.5472 34.212 71.2015 34.3526 70.9265C34.4422 70.7537 34.6191 70.6149 34.779 70.4932C34.9268 70.3812 35.2443 70.4421 35.3582 70.5638C35.8694 71.1139 36.2159 71.7322 36.2232 72.5111C36.2256 72.7107 36.2305 72.9298 36.4364 73.0539C36.4728 73.0758 36.5672 73.071 36.5842 73.0442C36.6399 72.959 36.6908 72.8641 36.7102 72.7667C36.8362 72.1436 36.7563 71.518 36.6836 70.8973C36.6448 70.5784 36.6617 70.2863 36.8241 69.9918C36.9695 69.724 37.0567 69.4222 37.1682 69.1447C37.4687 69.1544 37.4517 69.4027 37.5389 69.5682C37.6795 69.8311 37.8491 69.8652 38.0066 69.6729C38.0381 69.6339 38.0623 69.5853 38.0865 69.539C38.1883 69.3467 38.3264 69.2031 38.5445 69.152C38.8474 69.0789 39.1478 69.0059 39.4604 68.9305C39.979 69.1374 40.512 69.3418 41.0378 69.5585C41.2438 69.6437 41.3674 69.8287 41.394 70.038C41.4909 70.8169 41.5757 71.6251 41.268 72.3553C40.8827 73.2706 40.97 74.1882 41.05 75.1205C41.0548 75.1716 41.0669 75.2228 41.079 75.2739C41.3383 76.5056 41.1008 77.6521 40.5096 78.7426C40.386 78.9689 40.3085 79.2221 40.2091 79.4606L40.2406 79.429ZM38.9734 13.568C38.8668 13.4585 38.7601 13.3513 38.6511 13.2418C38.1955 12.5383 37.5268 12.0685 36.8653 11.589C36.8265 11.5622 36.7684 11.5476 36.7223 11.5501C36.6811 11.5525 36.6278 11.5768 36.606 11.6109C36.5842 11.645 36.5745 11.7229 36.5939 11.7424C37.047 12.1513 37.488 12.5724 37.9653 12.9473C38.1568 13.0958 38.4306 13.1371 38.6656 13.2272C38.7723 13.3367 38.8789 13.4438 38.9879 13.5534C39.0921 13.6605 39.1963 13.7652 39.3005 13.8723C39.6276 14.252 39.9523 14.6366 40.2915 15.0041C40.3327 15.048 40.4636 15.0139 40.5508 15.0041C40.5581 15.0041 40.5775 14.9092 40.5581 14.8776C40.2576 14.3883 39.8408 14.0451 39.2835 13.8844C39.1818 13.7798 39.0776 13.6727 38.9734 13.568ZM42.0967 16.7032L42.104 16.6934C42.2106 16.7981 42.3172 16.9028 42.4238 17.0075C42.528 17.1121 42.6298 17.2168 42.734 17.319C43.2113 18.227 43.788 19.0643 44.5198 19.7824C44.8178 20.0745 45.0868 20.369 45.2079 20.7755L45.2298 20.7561C45.019 20.7658 44.8081 20.7755 44.5949 20.7853C44.4907 20.6782 44.3865 20.5735 44.2823 20.4664L44.2944 20.4542C44.401 20.5589 44.5053 20.6636 44.6119 20.7682C44.813 21.0701 44.9802 21.3962 45.3145 21.5812C45.5423 21.5642 45.6901 21.4084 45.804 21.2429C45.9324 21.0506 45.8379 20.8388 45.7604 20.649C45.5423 20.1159 45.283 19.6144 44.9026 19.169C44.5997 18.816 44.3162 18.4339 44.2775 17.9349C44.3865 17.9324 44.4931 17.9324 44.6022 17.93C44.7112 18.0371 44.8178 18.1442 44.9269 18.2537C45.0311 18.3584 45.1352 18.4631 45.237 18.5677C45.3412 18.6724 45.4478 18.7747 45.552 18.8793C45.5883 19.1154 45.6635 19.3345 45.85 19.5C45.9591 19.6071 46.0681 19.7167 46.1772 19.8238L46.1602 19.8408C46.0511 19.7313 45.9446 19.6242 45.8355 19.5146C45.8137 19.2712 45.7168 19.0619 45.5351 18.8964C45.4309 18.7917 45.3267 18.6895 45.2201 18.5848C45.1159 18.4801 45.0117 18.3755 44.9075 18.2708C44.7984 18.1637 44.6918 18.0566 44.5828 17.947C44.498 17.5576 44.275 17.2582 43.9721 17.0148C43.868 16.9101 43.7638 16.803 43.6572 16.6983L43.6693 16.6861C43.7759 16.7908 43.8801 16.8955 43.9867 17.0002C43.9843 17.2144 43.9818 17.4261 43.9794 17.6403C43.7298 17.6817 43.4997 17.633 43.2695 17.5186C43.0974 17.4334 42.9036 17.392 42.717 17.3312C42.6128 17.2265 42.5086 17.1243 42.4068 17.0196C42.3051 16.9174 42.2009 16.8103 42.0967 16.7032ZM46.7757 20.7901L46.7878 20.778C46.8968 20.8802 47.0034 20.9824 47.1124 21.0871L47.1464 21.1382L47.0955 21.1041C46.9889 20.997 46.8823 20.8948 46.7757 20.7901ZM51.7745 22.9541C51.886 22.9541 51.9974 22.9565 52.1088 22.9565C52.1113 23.2121 52.2227 23.419 52.4045 23.5894L52.3875 23.6065C52.3584 23.363 52.2978 23.1342 52.087 22.9809C51.9852 22.7691 51.8835 22.5598 51.7817 22.3504L51.7938 22.3383C51.7914 22.5476 51.7914 22.7569 51.789 22.9687L51.7745 22.9541ZM54.5949 27.3526L54.5901 27.3599C54.5489 27.3064 54.5077 27.2528 54.4665 27.1968C54.5101 27.2504 54.5513 27.3015 54.5949 27.3526ZM55.8283 30.2055C55.8234 30.1665 55.8258 30.1227 55.8113 30.0886C55.8016 30.0618 55.7701 30.0399 55.7483 30.018C55.7822 30.074 55.8161 30.1324 55.8501 30.1884C55.867 30.4416 55.9906 30.6436 56.1554 30.8237C56.1844 30.8602 56.216 30.8992 56.245 30.9357C56.2087 30.9041 56.1723 30.8724 56.1384 30.8383C56.0875 30.6022 56.0585 30.3539 55.8283 30.2055ZM52.4069 30.5073L52.419 30.4975C52.5208 30.7093 52.6201 30.9235 52.7219 31.1353C52.7655 31.2473 52.8091 31.3592 52.8527 31.4712C52.8552 31.4347 52.8697 31.3909 52.8552 31.3665C52.8116 31.2911 52.7558 31.2205 52.7049 31.1499C52.6056 30.9333 52.5062 30.7191 52.4069 30.5073ZM52.3923 32.4084C52.4093 32.4132 52.339 32.3353 52.4069 32.3938C52.3899 32.3865 52.4699 32.4741 52.3923 32.4084ZM52.1088 34.2437C52.1307 34.3946 52.1476 34.5456 52.1767 34.694C52.1864 34.7379 52.2179 34.789 52.2543 34.8133C52.2858 34.8352 52.3778 34.8328 52.3803 34.8255C52.4021 34.7403 52.4529 34.621 52.4142 34.5699C52.3293 34.4506 52.2009 34.3606 52.0919 34.2608C52.1161 34.1074 52.1597 33.9565 52.1549 33.8031C52.15 33.6717 52.0483 33.6254 51.9465 33.6912C51.915 33.7106 51.8932 33.7934 51.9077 33.8299C51.9634 33.9735 52.0386 34.1074 52.1088 34.2437ZM52.7049 36.1691C52.6855 36.1278 52.6661 36.0864 52.6468 36.0426C52.671 36.0791 52.6952 36.118 52.7195 36.1545C52.7897 36.4442 52.8503 36.7387 52.9375 37.0235C52.9545 37.0746 53.0829 37.0941 53.1629 37.116C53.1702 37.1185 53.2162 37.0381 53.2186 36.9919C53.2477 36.5927 53.0732 36.3176 52.7049 36.1691ZM54.5973 43.0383L54.5828 43.0505C54.5149 42.442 54.452 41.8334 54.3696 41.2273C54.3599 41.164 54.2387 41.1153 54.1636 41.0691C54.1588 41.0642 54.0836 41.1324 54.0836 41.1665C54.057 41.8456 54.1491 42.4931 54.5973 43.0383ZM10.5434 3.19848C9.70989 2.85769 8.85697 2.90638 7.9992 3.07677C7.97497 3.08164 7.94833 3.15466 7.95075 3.19604C7.95318 3.23986 7.9774 3.31045 8.00648 3.31775C8.86182 3.55143 9.70503 3.54656 10.5289 3.179C10.6743 3.17657 10.8197 3.18387 10.965 3.1644C11.0426 3.15466 11.1129 3.09624 11.1856 3.05973C11.1008 3.04269 11.0087 2.99157 10.936 3.01348C10.8003 3.05486 10.6743 3.13519 10.5434 3.19848ZM36.4824 76.9242L36.4655 76.9413C36.5115 76.4252 36.56 75.9116 36.6012 75.3956C36.6254 75.0865 36.6472 74.7773 36.6618 74.4682C36.6739 74.2199 36.4873 74.1152 36.2692 74.2491C36.1844 74.3002 36.1117 74.4171 36.0293 74.4195C35.8451 74.4268 35.6441 74.2807 35.5617 74.6045C35.3509 75.4151 35.2758 76.2378 35.2733 77.0727C35.2709 77.859 35.1134 78.6038 34.8711 79.356C34.5707 80.2883 34.3889 81.2619 34.1781 82.2234C34.1321 82.4303 34.2435 82.6469 34.4277 82.7565C34.7281 82.9342 35.0528 83.0753 35.3799 83.2384C35.3315 83.6474 35.283 84.0563 35.2346 84.4628C35.2031 84.4896 35.1619 84.5139 35.1401 84.548C35.1231 84.5724 35.1279 84.6113 35.1231 84.643C35.1546 84.5772 35.1861 84.5115 35.2176 84.4458C35.5229 84.234 35.7216 83.9371 35.8985 83.6157C36.2765 82.9269 36.4558 82.1723 36.6423 81.4177C36.7368 81.0331 36.7078 80.7629 36.3274 80.5C35.9712 80.2542 36.1142 79.6748 36.5018 79.687C37.0592 79.704 37.2215 79.3998 37.2821 78.9738C37.3233 78.6963 37.4662 78.392 37.2142 78.1194C37.1076 78.5381 36.7684 78.6817 36.4267 78.7742C35.947 78.9056 35.4841 78.5186 35.4914 78.0269C35.4938 77.8736 35.5132 77.7178 35.5399 77.5644C35.5884 77.2796 35.7725 77.1117 36.0342 77.0289C36.1771 76.9802 36.3322 76.9583 36.4824 76.9242ZM20.2939 3.53682C20.3157 3.58064 20.3254 3.65123 20.3593 3.66583C20.5483 3.74616 20.7373 3.83136 20.9336 3.88491C21.4352 4.01635 21.9392 4.13806 22.448 4.24516C22.5231 4.2622 22.6613 4.19891 22.6976 4.13076C22.7315 4.06747 22.6927 3.89221 22.6418 3.87031C22.07 3.63663 21.52 3.34209 20.9021 3.24959C20.7567 3.22769 20.5895 3.25933 20.449 3.31045C20.3787 3.33236 20.3448 3.4565 20.2939 3.53682ZM53.5239 67.5771C53.5409 67.5795 53.5603 67.5819 53.5772 67.5844C53.5457 67.7329 53.5142 67.8838 53.4803 68.0323C53.4488 68.1686 53.4973 68.244 53.6233 68.2294C53.6645 68.2246 53.7153 68.171 53.7323 68.1296C54.0206 67.4213 54.3357 66.7227 54.4738 65.9632C54.4835 65.9072 54.3769 65.8172 54.309 65.7636C54.2848 65.7442 54.2097 65.7661 54.1685 65.7904C53.885 65.9511 53.7177 66.214 53.6547 66.5207C53.5796 66.8639 53.5627 67.2241 53.5239 67.5771ZM37.1342 75.2203C37.1585 75.3201 37.1536 75.4443 37.2142 75.5149C37.2699 75.5806 37.3911 75.6025 37.488 75.6171C37.5219 75.622 37.5873 75.5684 37.6067 75.5246C37.7036 75.325 37.711 75.1108 37.5947 74.9258C37.5535 74.8601 37.4226 74.8382 37.3281 74.8211C37.2966 74.8163 37.2336 74.8771 37.2166 74.9185C37.1755 75.0159 37.1585 75.1181 37.1342 75.2203ZM21.0959 2.17126C21.2365 2.17126 21.3334 2.17857 21.4279 2.16883C21.469 2.16396 21.5078 2.12745 21.549 2.10554C21.5005 2.03982 21.4667 1.95219 21.4037 1.91081C21.3261 1.86213 21.2243 1.82805 21.1347 1.83048C21.0523 1.83291 20.9554 1.8743 20.8924 1.93028C20.793 2.00818 20.9384 2.15422 21.0959 2.17126ZM59.395 43.9049C59.4193 43.9122 59.4435 43.9219 59.4677 43.9292C59.475 43.827 59.4919 43.7223 59.4822 43.6201C59.4774 43.5568 59.4338 43.4984 59.4072 43.4375C59.4023 43.4886 59.395 43.5398 59.395 43.5933C59.3926 43.698 59.395 43.8027 59.395 43.9049ZM52.8139 70.1135C52.8745 70.1475 52.9424 70.1914 52.9448 70.1889C53.0344 70.0696 53.1217 69.948 53.1992 69.8189C53.2235 69.78 53.2307 69.7094 53.2114 69.6704C53.1532 69.5633 53.0708 69.5804 53.0029 69.7094C52.9327 69.8433 52.8745 69.982 52.8139 70.1135ZM55.6853 60.2113C55.6829 60.1261 55.6853 60.0385 55.6732 59.9533C55.6708 59.9411 55.5763 59.9192 55.5545 59.9362C55.4721 60.0117 55.4745 60.1042 55.5642 60.1821C55.5908 60.2089 55.6441 60.204 55.6853 60.2113ZM54.7451 64.5806C54.7815 64.5003 54.8469 64.42 54.8469 64.3372C54.8469 64.2155 54.7621 64.1717 54.6676 64.2301C54.6361 64.2496 54.6119 64.3202 54.624 64.3542C54.6506 64.4346 54.7015 64.5052 54.7451 64.5806Z" fill="#434C5E"/>
<path d="M2.29286 2.91125C2.37524 2.9648 2.44313 3.01104 2.5134 3.05729C2.47705 3.0865 2.44314 3.13519 2.40194 3.14249C2.25656 3.1644 2.10874 3.18631 1.96578 3.17414C1.89309 3.16927 1.82764 3.09137 1.75979 3.04756C1.79614 3.01835 1.83005 2.96966 1.86882 2.96236C2.01178 2.93559 2.15959 2.92585 2.29286 2.91125Z" fill="#434C5E"/>
<path d="M3.59408 1.15378C3.68615 1.11484 3.77578 1.04668 3.86543 1.04911C3.95024 1.05155 4.0302 1.13188 4.11259 1.17569C4.02294 1.2122 3.93089 1.28036 3.84124 1.27793C3.75885 1.27549 3.67646 1.1976 3.59408 1.15378Z" fill="#434C5E"/>
<path d="M3.49233 2.17856C3.45841 2.15422 3.41234 2.13719 3.3978 2.10554C3.39053 2.0885 3.4293 2.02765 3.45837 2.01791C3.57226 1.97653 3.62801 2.02035 3.59651 2.12745C3.58924 2.15422 3.52868 2.16152 3.49233 2.17856Z" fill="#434C5E"/>
<path d="M40.2164 79.4485C40.2527 79.5093 40.2891 79.5677 40.3255 79.6286C40.3012 79.6043 40.2649 79.5848 40.2552 79.5556C40.2407 79.5166 40.2455 79.4704 40.2406 79.429L40.2164 79.4485Z" fill="#434C5E"/>
<path d="M53.0466 86.9944C53.0781 86.9262 53.112 86.858 53.1435 86.7874C53.1387 86.8215 53.1459 86.8653 53.129 86.8897C53.1023 86.9238 53.0587 86.9457 53.0224 86.9749L53.0466 86.9944Z" fill="#434C5E"/>
<path d="M49.2714 85.7286C49.3829 85.7286 49.4919 85.731 49.6034 85.731C49.6034 85.731 49.6131 85.7189 49.6131 85.7164C49.4968 85.7164 49.3805 85.7164 49.2617 85.7164L49.2714 85.7286Z" fill="#434C5E"/>
<path d="M47.7231 16.0776L47.7376 16.063C47.74 16.063 47.7231 16.0776 47.7231 16.0776Z" fill="#434C5E"/>
<path d="M47.4105 15.766C47.5147 15.8707 47.6189 15.9754 47.7231 16.0776C47.7231 16.0776 47.7376 16.063 47.74 16.063C47.6359 15.9583 47.5317 15.8537 47.4275 15.7514L47.4105 15.766Z" fill="#434C5E"/>
<path d="M47.4275 15.749C47.3233 15.6443 47.2191 15.5397 47.1149 15.4374L47.1004 15.452C47.2046 15.5567 47.3088 15.6589 47.413 15.7636C47.4105 15.766 47.4275 15.749 47.4275 15.749Z" fill="#434C5E"/>
<path d="M47.1124 15.4374C47.0083 15.3327 46.9017 15.2281 46.7975 15.1234L46.7805 15.1405C46.8847 15.2451 46.9913 15.3498 47.0955 15.4545C47.098 15.452 47.1124 15.4374 47.1124 15.4374Z" fill="#434C5E"/>
<path d="M46.7975 15.1234C46.6909 15.0187 46.5843 14.9141 46.4801 14.8094L46.4655 14.824C46.5721 14.9287 46.6763 15.0333 46.7829 15.1405L46.7975 15.1234Z" fill="#434C5E"/>
<path d="M40.2261 9.1719C40.2261 9.1719 40.2164 9.16216 40.2188 9.16216L40.2261 9.1719Z" fill="#434C5E"/>
<path d="M32.7218 4.77824C32.8309 4.77824 32.9399 4.77824 33.049 4.77824L33.0586 4.76364C32.9423 4.76364 32.826 4.76364 32.7121 4.76364L32.7218 4.77824Z" fill="#434C5E"/>
<path d="M34.9462 81.4639L34.9365 81.3374L35.048 81.386L34.9462 81.4639Z" fill="#434C5E"/>
<path d="M35.4405 79.7333L35.3775 79.8379L35.3315 79.7211L35.4405 79.7333Z" fill="#434C5E"/>
<path d="M45.2104 20.778L45.2322 20.7585C45.2298 20.7561 45.2104 20.778 45.2104 20.778Z" fill="#434C5E"/>
<path d="M43.9625 17.6209C44.0739 17.7328 44.1878 17.8472 44.2993 17.9592C44.1854 17.8472 44.0739 17.7353 43.9625 17.6209Z" fill="#434C5E"/>
</svg>
