<svg width="69" height="24" viewBox="0 0 69 24" fill="none" xmlns="http://www.w3.org/2000/svg">
  <g clip-path="url(#clip0_329_624)">
    <path
      d="M10.6443 21.1778C10.6443 21.7365 10.4778 22.2826 10.1657 22.7472C9.85356 23.2117 9.40995 23.5738 8.89094 23.7876C8.37194 24.0014 7.80084 24.0573 7.24986 23.9483C6.69888 23.8393 6.19278 23.5703 5.79555 23.1752C5.39832 22.7802 5.1278 22.2769 5.0182 21.7289C4.90861 21.1809 4.96485 20.613 5.17983 20.0968C5.39481 19.5807 5.75887 19.1395 6.22597 18.8291C6.69306 18.5187 7.24222 18.353 7.80399 18.353C8.17708 18.3527 8.54657 18.4256 8.89132 18.5674C9.23607 18.7093 9.54931 18.9173 9.81313 19.1797C10.0769 19.4421 10.2861 19.7536 10.4288 20.0964C10.5714 20.4393 10.6447 20.8068 10.6443 21.1778Z"
      fill="#00AEEF"/>
    <path
      d="M9.27597 10.2158L9.40019 10.1896C11.1539 9.82048 12.7272 8.86432 13.8575 7.48073C14.9879 6.09715 15.6069 4.36987 15.6112 2.58717V1.46105C15.6112 1.07197 15.4558 0.698826 15.1792 0.423704C14.9025 0.148581 14.5273 -0.00598145 14.1361 -0.00598145C13.7449 -0.00598145 13.3697 0.148581 13.093 0.423704C12.8164 0.698826 12.661 1.07197 12.661 1.46105V2.58242C12.6589 3.5267 12.379 4.44973 11.8559 5.23779C11.3328 6.02585 10.5894 6.6445 9.71708 7.0175C8.84481 7.39051 7.88187 7.50158 6.9469 7.33703C6.01194 7.17248 5.14581 6.73949 4.45524 6.09142C3.97465 5.64083 3.59224 5.09688 3.33172 4.49327C3.07119 3.88966 2.9381 3.23928 2.94069 2.58242V1.46105C2.92539 1.08343 2.76378 0.726338 2.48971 0.464539C2.21564 0.20274 1.85036 0.0565352 1.47035 0.0565352C1.09033 0.0565352 0.725053 0.20274 0.450983 0.464539C0.176914 0.726338 0.0153081 1.08343 0 1.46105L0 2.58242C0.00389303 4.36523 0.622736 6.09274 1.75317 7.47641C2.8836 8.86008 4.45717 9.81613 6.21105 10.1849L6.33527 10.211V13.6559L6.21105 13.6796C4.45737 14.0488 2.88405 15.0049 1.7537 16.3885C0.62334 17.7721 0.00433493 19.4994 0 21.2821L0 22.4011C0.0153081 22.7787 0.176914 23.1358 0.450983 23.3976C0.725053 23.6594 1.09033 23.8056 1.47035 23.8056C1.85036 23.8056 2.21564 23.6594 2.48971 23.3976C2.76378 23.1358 2.92539 22.7787 2.94069 22.4011V21.2821C2.93996 20.3354 3.21854 19.4094 3.74191 18.6187C4.26529 17.828 5.01045 17.2074 5.88506 16.8339C6.75966 16.4603 7.72526 16.3502 8.6622 16.5171C9.59914 16.6841 10.4662 17.1207 11.156 17.7731C11.635 18.2244 12.0157 18.7687 12.2746 19.3723C12.5334 19.9759 12.665 20.6259 12.661 21.2821V22.4011C12.6763 22.7787 12.8379 23.1358 13.112 23.3976C13.386 23.6594 13.7513 23.8056 14.1313 23.8056C14.5113 23.8056 14.8766 23.6594 15.1507 23.3976C15.4248 23.1358 15.5864 22.7787 15.6017 22.4011V21.2821C15.5965 19.4996 14.9771 17.7728 13.8469 16.3894C12.7167 15.006 11.1439 14.0496 9.39063 13.6796L9.26641 13.6559L9.27597 10.2158Z"
      fill="#00AEEF"/>
    <path
      d="M22.666 8.00693C22.4386 7.67671 22.3079 7.29012 22.2886 6.89032C22.2879 6.7104 22.3235 6.53218 22.3935 6.36624C22.4634 6.2003 22.5661 6.05004 22.6956 5.92437C22.8251 5.79871 22.9786 5.70022 23.1471 5.63475C23.3157 5.56928 23.4957 5.53817 23.6765 5.54326C24.2594 5.54326 24.6321 5.83311 24.9976 6.42942L27.7376 10.7581L30.4967 6.43893C30.8742 5.84261 31.2349 5.55277 31.7987 5.55277C31.9783 5.54931 32.1568 5.58123 32.324 5.64669C32.4911 5.71215 32.6436 5.80987 32.7726 5.9342C32.9016 6.05853 33.0046 6.20702 33.0757 6.37112C33.1467 6.53522 33.1844 6.71167 33.1866 6.89032C33.1692 7.28754 33.0383 7.6716 32.8091 7.99743L29.1614 13.5282V16.5454C29.1614 17.4649 28.6645 18.1301 27.7543 18.1301C26.8442 18.1301 26.3855 17.4649 26.3855 16.5454V13.5615L22.666 8.00693Z"
      fill="#00AEEF"/>
    <path
      d="M40.1321 18.2319C38.8612 18.2319 37.6187 17.8571 36.562 17.1549C35.5052 16.4527 34.6816 15.4546 34.1952 14.2868C33.7088 13.119 33.5816 11.834 33.8295 10.5943C34.0775 9.35465 34.6895 8.21592 35.5882 7.32215C36.4869 6.42837 37.6319 5.81971 38.8784 5.57312C40.125 5.32653 41.417 5.45309 42.5912 5.93679C43.7655 6.4205 44.7691 7.23962 45.4752 8.29059C46.1813 9.34155 46.5582 10.5772 46.5582 11.8411C46.5575 13.5359 45.8803 15.1611 44.6753 16.3594C43.4703 17.5578 41.8362 18.2313 40.1321 18.2319ZM40.1321 15.5735C42.1196 15.5735 43.7823 13.87 43.7823 11.8411C43.7823 9.81223 42.1101 8.1088 40.1321 8.1088C38.1541 8.1088 36.4819 9.81223 36.4819 11.8411C36.4819 13.87 38.1493 15.5735 40.1321 15.5735Z"
      fill="#00AEEF"/>
    <path
      d="M51.0099 8.3987H48.3821C47.4911 8.3987 46.8748 7.90454 46.8748 7.01838C46.8748 6.13222 47.4911 5.63806 48.3821 5.63806H56.4183C57.2926 5.63806 57.9448 6.13222 57.9448 7.01838C57.9448 7.90454 57.2926 8.3987 56.4183 8.3987H53.7905V16.5452C53.7905 17.4646 53.3271 18.1298 52.4026 18.1298C51.4781 18.1298 51.0147 17.4646 51.0147 16.5452L51.0099 8.3987Z"
      fill="#00AEEF"/>
    <path
      d="M65.1446 7.2227L68.7613 15.8634C68.9074 16.1599 68.9888 16.4837 69.0002 16.8137C69.0051 16.99 68.9732 17.1655 68.9065 17.329C68.8398 17.4925 68.7398 17.6405 68.6128 17.7637C68.4858 17.8869 68.3345 17.9826 68.1685 18.0448C68.0025 18.107 67.8253 18.1343 67.6481 18.1251C67.3607 18.1306 67.0791 18.0443 66.8448 17.8788C66.6104 17.7133 66.4357 17.4773 66.3462 17.2057L65.6295 15.4143H60.2785L59.5618 17.2057C59.4732 17.4746 59.301 17.7086 59.07 17.8738C58.839 18.0391 58.5612 18.1271 58.2766 18.1251C58.0996 18.1333 57.9228 18.1052 57.7571 18.0426C57.5914 17.9801 57.4404 17.8844 57.3135 17.7614C57.1865 17.6385 57.0862 17.491 57.0189 17.3279C56.9516 17.1649 56.9187 16.9899 56.9221 16.8137C56.9338 16.4837 57.0152 16.1599 57.161 15.8634L60.7754 7.2227C61.1862 6.23438 61.9411 5.63806 62.9516 5.63806C63.9621 5.63806 64.7385 6.23438 65.1446 7.2227ZM64.6143 12.8984L62.9683 8.7907L61.3081 12.8984H64.6143Z"
      fill="#00AEEF"/>
  </g>
  <defs>
    <clipPath id="clip0_329_624">
      <rect width="69" height="24" fill="white"/>
    </clipPath>
  </defs>
</svg>
