<svg [attr.width]="width()" [attr.height]="height()" viewBox="0 0 32 32" fill="none" xmlns="http://www.w3.org/2000/svg">
  <circle cx="16" cy="16" r="16" fill="currentColor"/>
  <path
    d="M25.8939 20.9342C25.8697 20.8839 25.8471 20.8422 25.8262 20.8087C25.4792 20.2063 24.8161 19.4668 23.8372 18.5901L23.8166 18.57L23.8062 18.5602L23.7957 18.5501H23.7852C23.341 18.1419 23.0597 17.8674 22.9419 17.7268C22.7263 17.4591 22.678 17.1882 22.7959 16.9136C22.8791 16.7062 23.1917 16.2681 23.733 15.5988C24.0178 15.244 24.2433 14.9598 24.4098 14.7456C25.6109 13.2063 26.1316 12.2227 25.9719 11.7943L25.9098 11.6942C25.8681 11.634 25.7606 11.5788 25.5872 11.5286C25.4134 11.4784 25.1914 11.4701 24.9206 11.5035L21.9216 11.5235C21.8731 11.5069 21.8037 11.5085 21.7133 11.5286C21.623 11.5487 21.5779 11.5588 21.5779 11.5588L21.5257 11.5839L21.4843 11.6141C21.4495 11.6341 21.4114 11.6692 21.3697 11.7194C21.3282 11.7694 21.2935 11.8282 21.2658 11.8951C20.9393 12.7048 20.5681 13.4577 20.1515 14.1536C19.8946 14.5686 19.6587 14.9282 19.4432 15.2328C19.2281 15.5372 19.0476 15.7615 18.9019 15.9052C18.756 16.0491 18.6244 16.1644 18.5061 16.2515C18.388 16.3386 18.2979 16.3754 18.2355 16.362C18.173 16.3485 18.1141 16.3351 18.0583 16.3218C17.9612 16.2615 17.883 16.1796 17.8241 16.0758C17.765 15.9721 17.7252 15.8416 17.7043 15.6843C17.6836 15.5269 17.6714 15.3916 17.6679 15.2778C17.6646 15.1641 17.6661 15.0033 17.6732 14.7959C17.6804 14.5883 17.6836 14.4479 17.6836 14.3743C17.6836 14.1199 17.6888 13.8439 17.6991 13.5461C17.7096 13.2483 17.7181 13.0124 17.7252 12.8385C17.7323 12.6645 17.7356 12.4804 17.7356 12.2864C17.7356 12.0923 17.7233 11.9401 17.6991 11.8296C17.6752 11.7193 17.6384 11.6122 17.59 11.5084C17.5413 11.4046 17.4701 11.3244 17.3766 11.2674C17.2829 11.2106 17.1664 11.1654 17.0277 11.1319C16.6598 11.0516 16.1912 11.0082 15.6218 11.0014C14.3307 10.9881 13.501 11.0684 13.1331 11.2424C12.9873 11.316 12.8554 11.4164 12.7374 11.5435C12.6125 11.6908 12.595 11.7711 12.6853 11.7844C13.1018 11.8445 13.3968 11.9884 13.5703 12.2159L13.6329 12.3365C13.6815 12.4235 13.7301 12.5775 13.7787 12.7983C13.8273 13.0191 13.8586 13.2633 13.8724 13.5309C13.907 14.0195 13.907 14.4377 13.8724 14.7857C13.8376 15.1338 13.8048 15.4047 13.7735 15.5988C13.7422 15.7929 13.6953 15.9502 13.6329 16.0706C13.5703 16.191 13.5287 16.2646 13.5079 16.2914C13.487 16.3181 13.4697 16.3349 13.4559 16.3415C13.3656 16.3749 13.2718 16.3919 13.1747 16.3919C13.0774 16.3919 12.9595 16.345 12.8206 16.2512C12.6819 16.1575 12.5378 16.0287 12.3885 15.8647C12.2393 15.7007 12.0709 15.4715 11.8834 15.1771C11.696 14.8827 11.5016 14.5347 11.3003 14.1332L11.1338 13.842C11.0296 13.6547 10.8874 13.3819 10.7069 13.024C10.5263 12.6659 10.3666 12.3195 10.2278 11.9849C10.1724 11.8443 10.089 11.7373 9.97798 11.6637L9.92586 11.6335C9.89121 11.6068 9.83559 11.5784 9.75929 11.5482C9.68288 11.518 9.60315 11.4963 9.51977 11.483L6.66657 11.503C6.37501 11.503 6.17718 11.5666 6.07302 11.6938L6.03133 11.754C6.0105 11.7875 6 11.841 6 11.9147C6 11.9883 6.02083 12.0786 6.06251 12.1856C6.47903 13.1293 6.93198 14.0394 7.42137 14.916C7.91075 15.7927 8.33602 16.4989 8.69692 17.0339C9.05789 17.5694 9.42582 18.0747 9.80072 18.5497C10.1756 19.0249 10.4238 19.3294 10.5452 19.4632C10.6668 19.5972 10.7622 19.6974 10.8317 19.7643L11.092 20.0052C11.2586 20.1658 11.5033 20.3582 11.8261 20.5824C12.149 20.8067 12.5065 21.0274 12.8987 21.2451C13.291 21.4624 13.7474 21.6398 14.2681 21.7769C14.7887 21.9142 15.2955 21.9693 15.7884 21.9427H16.9859C17.2288 21.9225 17.4128 21.8489 17.5379 21.7218L17.5793 21.6715C17.6072 21.6316 17.6333 21.5695 17.6573 21.486C17.6817 21.4024 17.6938 21.3102 17.6938 21.21C17.6867 20.9223 17.7094 20.663 17.7613 20.4321C17.8132 20.2014 17.8724 20.0273 17.9386 19.9102C18.0047 19.7931 18.0793 19.6943 18.1624 19.6142C18.2456 19.5339 18.3049 19.4853 18.3397 19.4686C18.3743 19.4517 18.4019 19.4403 18.4227 19.4334C18.5893 19.3799 18.7854 19.4318 19.0112 19.5892C19.2369 19.7464 19.4485 19.9406 19.6465 20.1714C19.8444 20.4024 20.0821 20.6615 20.3597 20.9493C20.6375 21.2371 20.8804 21.451 21.0886 21.5918L21.2968 21.7122C21.4358 21.7926 21.6163 21.8662 21.8385 21.9331C22.0603 22 22.2546 22.0167 22.4215 21.9833L25.0872 21.9432C25.3508 21.9432 25.556 21.9011 25.7015 21.8176C25.8473 21.734 25.9339 21.6418 25.9619 21.5416C25.9897 21.4412 25.9912 21.3274 25.9672 21.2001C25.9425 21.0732 25.9181 20.9844 25.8939 20.9342Z"
    fill="white"/>
</svg>
