<svg xmlns="http://www.w3.org/2000/svg" [attr.width]="width()" [attr.height]="height()" viewBox="0 0 26 36" fill="none">
  <path fill-rule="evenodd" clip-rule="evenodd"
        d="M11.228 3.41663C10.6097 3.41663 10.0233 3.69126 9.6275 4.16624L3.06625 12.0397C2.75424 12.4141 2.58337 12.8861 2.58337 13.3735V27.1666C2.58337 30.1582 5.0085 32.5833 8.00004 32.5833H18C20.9916 32.5833 23.4167 30.1582 23.4167 27.1666V8.83329C23.4167 5.84175 20.9916 3.41663 18 3.41663H11.228ZM7.70694 2.56578C8.57775 1.52081 9.86772 0.916626 11.228 0.916626H18C22.3723 0.916626 25.9167 4.46104 25.9167 8.83329V27.1666C25.9167 31.5389 22.3723 35.0833 18 35.0833H8.00004C3.62779 35.0833 0.083374 31.5389 0.083374 27.1666V13.3735C0.083374 12.3012 0.459281 11.263 1.14569 10.4393L7.70694 2.56578Z"
        fill="currentColor"/>
  <path fill-rule="evenodd" clip-rule="evenodd"
        d="M16.3334 21.3333H9.66671C9.20647 21.3333 8.83337 21.7064 8.83337 22.1666V25.5C8.83337 25.9602 9.20647 26.3333 9.66671 26.3333H16.3334C16.7936 26.3333 17.1667 25.9602 17.1667 25.5V22.1666C17.1667 21.7064 16.7936 21.3333 16.3334 21.3333ZM9.66671 18.8333C7.82576 18.8333 6.33337 20.3257 6.33337 22.1666V25.5C6.33337 27.3409 7.82576 28.8333 9.66671 28.8333H16.3334C18.1743 28.8333 19.6667 27.3409 19.6667 25.5V22.1666C19.6667 20.3257 18.1743 18.8333 16.3334 18.8333H9.66671Z"
        fill="currentColor"/>
</svg>
